<svg width="1500" height="415" viewBox="0 0 1500 415" fill="none" xmlns="http://www.w3.org/2000/svg">
<g clip-path="url(#clip0_1_38)">
<g clip-path="url(#clip1_1_38)">
<g clip-path="url(#clip2_1_38)">
<g clip-path="url(#clip3_1_38)">
<g clip-path="url(#clip4_1_38)">
<g clip-path="url(#clip5_1_38)">
<g clip-path="url(#clip6_1_38)">
<g clip-path="url(#clip7_1_38)">
<path d="M34.3001 324.866H0.889038V78.6798H146.842V107.519H34.3001V182.781H128.203V210.214H34.3001V324.866ZM222.457 324.866H189.046V78.6798H222.457V324.866ZM366.652 324.866H333.241V108.222H257.626V78.6798H442.266V108.222H366.652V324.866Z" fill="black"/>
</g>
<g clip-path="url(#clip8_1_38)">
<path fill-rule="evenodd" clip-rule="evenodd" d="M599.854 226.246C608.946 224.087 620.771 223.988 626.093 214.323C563.295 202.416 545.335 215.817 539.534 233.034C540.066 233.452 545.749 232.994 546.323 233.034C574.011 234.994 578.404 244.191 568.768 270.481C564.954 280.877 560.398 291.002 556.741 301.449C548.787 324.174 557.044 343.006 572.974 363.43C567.26 338.253 576.914 321.168 590.62 305.593C611.711 281.617 617.951 255.769 599.854 226.246Z" fill="#434343"/>
<path d="M632.535 258.477C654.721 151.741 590.053 -1.52588e-05 590.053 -1.52588e-05C637.362 25.5144 668.134 57.7598 684.844 90.3144C710.954 141.181 692.911 224.449 692.911 224.449C717.132 176.901 703.925 125.012 706.948 129.275C709.972 133.536 734.773 152.892 742.024 181.761C754.471 231.333 716.298 289.917 716.298 289.917C736.601 271.601 751.389 223.852 751.389 223.852C751.389 223.852 763.569 238.137 760.174 272.157C755.25 321.502 702.34 346.061 702.34 346.061C711.675 348.392 743.51 328.283 743.51 328.283C736.795 345.895 724.745 363.213 716.363 369.438C700.771 381.02 666.952 382.822 666.952 382.822C680.409 387.353 693.999 386.655 693.999 386.655C662.996 415.156 619.602 397.305 619.602 397.305C629.607 407.234 634.556 410.043 636.955 410.647C626.092 415.04 602.819 408.645 588.753 391.226C581.917 382.76 571.781 357.206 578.57 338.495C585.886 318.333 597.239 306.178 609.12 297.673C615.298 293.248 629.675 272.242 632.535 258.477Z" fill="#434343"/>
</g>
<g clip-path="url(#clip9_1_38)">
<path d="M891.45 324.866H858.039V79.3831C867.652 78.2108 878.273 77.3433 889.903 76.7806C901.485 76.171 913.49 75.8662 925.916 75.8662C946.315 75.8662 963.665 79.1018 977.967 85.573C992.269 91.9973 1003.17 100.837 1010.67 112.091C1018.18 123.345 1021.93 136.24 1021.93 150.777C1021.93 168.362 1017.59 183.25 1008.92 195.442C1000.24 207.635 988.166 216.943 972.692 223.367C957.217 229.838 939.281 233.074 918.882 233.074C909.035 233.074 899.891 232.722 891.45 232.019V324.866ZM923.103 205.29C943.97 205.29 960.148 200.601 971.637 191.222C983.125 181.844 988.87 169.3 988.87 153.591C988.87 138.351 983.36 126.276 972.34 117.366C961.32 108.457 945.611 104.002 925.213 104.002C918.882 104.002 912.904 104.119 907.276 104.353C901.649 104.588 896.374 104.94 891.45 105.409V203.531C895.202 204 899.774 204.422 905.166 204.798C910.559 205.126 916.538 205.29 923.103 205.29ZM1237.17 314.315L1205.87 329.087L1175.27 262.265C1167.53 245.618 1157.8 233.777 1146.08 226.743C1134.35 219.709 1119.35 216.192 1101.06 216.192H1095.78V324.866H1062.37V79.3831C1074.8 78.2108 1086.69 77.3433 1098.04 76.7806C1109.43 76.171 1121.58 75.8662 1134.47 75.8662C1164.48 75.8662 1187.04 81.9622 1202.14 94.1543C1217.28 106.346 1224.86 122.055 1224.86 141.281C1224.86 158.397 1219.75 172.16 1209.52 182.57C1199.35 193.027 1184.65 200.835 1165.42 205.993C1171.75 208.807 1177.38 212.136 1182.3 215.981C1187.23 219.874 1191.96 225.032 1196.51 231.456C1201.11 237.927 1205.75 246.321 1210.44 256.637L1237.17 314.315ZM1095.78 105.409V188.057H1134.47C1151.35 188.057 1165.07 184.305 1175.62 176.803C1186.17 169.3 1191.45 158.515 1191.45 144.447C1191.45 132.724 1186.52 123.04 1176.67 115.397C1166.83 107.8 1152.76 104.002 1134.47 104.002C1126.5 104.002 1119.35 104.119 1113.02 104.353C1106.69 104.588 1100.94 104.94 1095.78 105.409ZM1381.36 329.087C1363.07 329.087 1346.78 325.734 1332.48 319.028C1318.17 312.369 1306.03 303.225 1296.04 291.596C1286.1 280.013 1278.48 266.485 1273.18 251.01C1267.93 235.536 1265.3 219.006 1265.3 201.421C1265.3 177.272 1269.92 155.631 1279.16 136.498C1288.4 117.413 1301.71 102.29 1319.11 91.1298C1336.46 80.0162 1357.21 74.4594 1381.36 74.4594C1399.41 74.4594 1415.64 77.7419 1430.04 84.3069C1444.48 90.8718 1456.74 100.016 1466.82 111.739C1476.91 123.462 1484.57 136.944 1489.82 152.184C1495.12 167.424 1497.77 183.837 1497.77 201.421C1497.77 219.006 1495.12 235.536 1489.82 251.01C1484.57 266.485 1476.91 280.013 1466.82 291.596C1456.74 303.225 1444.53 312.369 1430.18 319.028C1415.92 325.734 1399.65 329.087 1381.36 329.087ZM1381.36 300.248C1399.41 300.248 1414.51 295.91 1426.66 287.235C1438.9 278.56 1448.11 266.766 1454.3 251.854C1460.49 236.989 1463.59 220.178 1463.59 201.421C1463.59 188.76 1461.74 176.568 1458.03 164.845C1454.28 153.122 1448.89 142.618 1441.85 133.333C1434.82 124.095 1426.19 116.78 1415.97 111.387C1405.79 105.995 1394.26 103.298 1381.36 103.298C1364.25 103.298 1349.52 107.636 1337.19 116.311C1324.9 124.986 1315.52 136.709 1309.05 151.481C1302.63 166.252 1299.42 182.899 1299.42 201.421C1299.42 214.082 1301.22 226.321 1304.83 238.138C1308.49 250.002 1313.84 260.623 1320.87 270.002C1327.9 279.38 1336.51 286.766 1346.68 292.159C1356.91 297.551 1368.47 300.248 1381.36 300.248Z" fill="black"/>
</g>
</g>
</g>
</g>
</g>
</g>
</g>
</g>
<defs>
<clipPath id="clip0_1_38">
<rect width="1500" height="415" fill="white"/>
</clipPath>
<clipPath id="clip1_1_38">
<rect width="1496.88" height="411.987" fill="white" transform="translate(0.889038 -1.52588e-05)"/>
</clipPath>
<clipPath id="clip2_1_38">
<rect width="1496.88" height="411.987" fill="white" transform="translate(0.889038 -1.52588e-05)"/>
</clipPath>
<clipPath id="clip3_1_38">
<rect width="1496.88" height="411.987" fill="white" transform="translate(0.889038 -1.52588e-05)"/>
</clipPath>
<clipPath id="clip4_1_38">
<rect width="1496.88" height="411.987" fill="white" transform="translate(0.889038 -1.52588e-05)"/>
</clipPath>
<clipPath id="clip5_1_38">
<rect width="1496.88" height="411.987" fill="white" transform="translate(0.889038 -1.52588e-05)"/>
</clipPath>
<clipPath id="clip6_1_38">
<rect width="1496.88" height="411.987" fill="white" transform="translate(0.889038 -1.52588e-05)"/>
</clipPath>
<clipPath id="clip7_1_38">
<rect width="441.377" height="246.186" fill="white" transform="translate(0.889038 78.6798)"/>
</clipPath>
<clipPath id="clip8_1_38">
<rect width="221.238" height="411.987" fill="white" transform="translate(539.534 -1.52588e-05)"/>
</clipPath>
<clipPath id="clip9_1_38">
<rect width="639.733" height="254.627" fill="white" transform="translate(858.039 74.4594)"/>
</clipPath>
</defs>
</svg>
