<svg width="45" height="59" viewBox="0 0 45 59" fill="none" xmlns="http://www.w3.org/2000/svg">
<path d="M23.4418 58.0814L8.37207 41.3372H36.6279L23.4418 58.0814Z" fill="white" stroke="white"/>
<rect width="45" height="46.5698" rx="22.5" fill="white"/>
<g clip-path="url(#clip0_2_3)">
<path fill-rule="evenodd" clip-rule="evenodd" d="M19.5444 24.6121C20.0787 24.4707 20.7735 24.4642 21.0862 23.8308C17.3962 23.0504 16.3409 23.9287 16 25.057C16.0313 25.0844 16.3652 25.0544 16.3989 25.057C18.0259 25.1855 18.284 25.7882 17.7178 27.5112C17.4937 28.1925 17.226 28.856 17.0111 29.5407C16.5437 31.03 17.0289 32.2641 17.965 33.6027C17.6292 31.9527 18.1965 30.833 19.0018 29.8122C20.2412 28.241 20.6078 26.547 19.5444 24.6121Z" fill="black"/>
<path d="M21.4648 26.7244C22.7684 19.7294 18.9685 9.78488 18.9685 9.78488C21.7484 11.457 23.5566 13.5702 24.5385 15.7037C26.0727 19.0373 25.0125 24.4944 25.0125 24.4944C26.4357 21.3783 25.6597 17.9777 25.8373 18.257C26.015 18.5363 27.4723 19.8048 27.8984 21.6968C28.6298 24.9456 26.3867 28.7849 26.3867 28.7849C27.5797 27.5846 28.4487 24.4553 28.4487 24.4553C28.4487 24.4553 29.1644 25.3915 28.9649 27.621C28.6756 30.8549 25.5666 32.4644 25.5666 32.4644C26.1151 32.6171 27.9857 31.2992 27.9857 31.2992C27.5911 32.4535 26.8831 33.5885 26.3905 33.9964C25.4743 34.7555 23.4871 34.8736 23.4871 34.8736C24.2778 35.1705 25.0764 35.1247 25.0764 35.1247C23.2547 36.9926 20.7048 35.8227 20.7048 35.8227C21.2927 36.4734 21.5835 36.6575 21.7245 36.6971C21.0862 36.985 19.7187 36.5659 18.8922 35.4243C18.4904 34.8695 17.8949 33.1948 18.2938 31.9685C18.7237 30.6472 19.3908 29.8506 20.0889 29.2932C20.4519 29.0032 21.2967 27.6266 21.4648 26.7244Z" fill="black"/>
</g>
<defs>
<clipPath id="clip0_2_3">
<rect width="13" height="27" fill="white" transform="translate(16 9.78488)"/>
</clipPath>
</defs>
</svg>
